PathFileType	4	(X/Y/Z)	C:/Users/opensim2020/Desktop/walking_exp_matlab/subject02_walking07_straight_03.trc	
DataRate	CameraRate	NumFrames	NumMarkers	Units	OrigDataRate	OrigDataStartFrame	OrigNumFrames	
100.00	100.00	5	50	mm	100.00	2018	203	
Frame#	Time	LFHD			RFHD			LBHD			RBHD			C7			T10			CLAV			STRN			RBAK			LSHO			LUPA			LELB			LFRM			LWRA			LWRB			LFIN			RSHO			RUPA			RELB			RFRM			RWRA			RWRB			RFIN			LASI			RASI			LPSI			RPSI			LTHI			LKNE			LTIB			LANK			LHEE			LTOE			RTHI			RKNE			RTIB			RANK			RHEE			RTOE			*39			*40			*41			*42			*43			*44			*45			*46			*47			*48			*49			
		X1	Y1	Z1	X2	Y2	Z2	X3	Y3	Z3	X4	Y4	Z4	X5	Y5	Z5	X6	Y6	Z6	X7	Y7	Z7	X8	Y8	Z8	X9	Y9	Z9	X10	Y10	Z10	X11	Y11	Z11	X12	Y12	Z12	X13	Y13	Z13	X14	Y14	Z14	X15	Y15	Z15	X16	Y16	Z16	X17	Y17	Z17	X18	Y18	Z18	X19	Y19	Z19	X20	Y20	Z20	X21	Y21	Z21	X22	Y22	Z22	X23	Y23	Z23	X24	Y24	Z24	X25	Y25	Z25	X26	Y26	Z26	X27	Y27	Z27	X28	Y28	Z28	X29	Y29	Z29	X30	Y30	Z30	X31	Y31	Z31	X32	Y32	Z32	X33	Y33	Z33	X34	Y34	Z34	X35	Y35	Z35	X36	Y36	Z36	X37	Y37	Z37	X38	Y38	Z38	X39	Y39	Z39	X40	Y40	Z40	X41	Y41	Z41	X42	Y42	Z42	X43	Y43	Z43	X44	Y44	Z44	X45	Y45	Z45	X46	Y46	Z46	X47	Y47	Z47	X48	Y48	Z48	X49	Y49	Z49	X50	Y50	Z50	

26	0.250	1358.96912	-597.78082	1732.30823	1501.84619	-590.93103	1713.49707	1351.61780	-702.85309	1624.74219	1493.05762	-707.79449	1601.35791	1422.15527	-732.26190	1495.34277	1436.09277	-787.74561	1226.44812	1408.70349	-590.52454	1430.60535	1431.68237	-540.94641	1257.78784	1497.43152	-789.41022	1332.22510	1240.88342	-668.38611	1462.54016	1172.94885	-733.76953	1272.78247	1171.51465	-780.74829	1141.41321	1155.07007	-822.19153	1017.68658	1167.72046	-813.37494	877.01324	1147.82043	-861.83911	899.91028	1144.56799	-871.63666	832.31146	1605.46375	-643.59174	1475.06006	1706.22852	-628.77216	1292.75220	1740.10107	-564.76050	1160.95764	1750.00012	-480.28769	1072.51379	1717.00403	-381.07394	985.47699	1759.20203	-411.47162	961.84338	1752.45764	-346.96820	929.60699	1321.59216	-548.79718	967.36957	1578.34070	-578.57837	944.83063	1378.36768	-766.72937	1004.88428	1490.64856	-782.31055	1004.68323	1243.27612	-536.83496	670.85620	1269.10352	-504.58685	472.35767	1266.02148	-505.34079	277.31537	1282.04187	-439.25504	67.56808	1335.08020	-464.99606	36.04555	1265.84570	-282.35751	47.97016	1634.47803	-725.35028	654.79254	1602.09766	-777.82642	450.71484	1604.10022	-885.16229	293.82471	1571.72253	-966.95532	116.39975	1513.72681	-1008.66187	68.66514	1607.43494	-835.98969	31.30983	1451.03931	-711.83063	1766.82764	-3360.37280	2845.15015	1033.95410																											 
27	0.260	1356.50024	-589.52802	1732.62476	1499.43823	-582.62073	1713.68726	1349.03052	-694.21484	1624.65344	1490.41248	-699.10767	1601.12927	1418.96179	-723.58081	1494.83838	1432.90955	-777.59955	1225.70654	1406.16650	-581.34930	1430.76892	1429.35400	-531.09021	1258.33081	1493.76135	-780.17346	1331.14893	1237.95776	-658.79309	1462.15881	1170.20117	-722.27026	1271.30737	1169.29907	-768.24170	1139.49207	1153.35986	-808.65393	1015.27496	1167.19055	-798.88611	875.09955	1146.45898	-847.34882	897.46368	1143.92334	-856.36243	829.44183	1603.02490	-635.85254	1474.92346	1703.35413	-621.53265	1292.16895	1737.73767	-558.68109	1159.92896	1748.09863	-474.67545	1071.16284	1715.61780	-375.94669	983.48413	1757.61572	-406.54114	960.00043	1750.85010	-342.35522	927.03217	1319.08813	-537.06696	968.03040	1575.49890	-567.06390	944.65906	1374.48352	-754.89636	1004.72937	1486.55176	-771.50763	1003.30157	1240.19275	-527.13770	671.06952	1265.76575	-496.20251	472.91867	1265.19019	-497.45322	278.29547	1279.16125	-433.47076	66.43834	1332.11365	-462.69156	37.96870	1265.68530	-276.62314	43.22602	1632.70361	-715.59882	655.13141	1601.51367	-768.70923	451.44226	1603.47522	-879.24115	296.81580	1572.04724	-964.41809	121.10034	1513.95593	-1006.55017	74.33686	1607.70398	-835.67004	31.35454	1448.60168	-703.76593	1766.66724	-3360.38623	2845.34863	1033.91272																											 
28	0.270	1353.97266	-581.21631	1733.14685	1496.94470	-574.32129	1714.02356	1346.34875	-685.52332	1624.94299	1487.34521	-690.72198	1601.10535	1415.86804	-714.75598	1494.77136	1429.84387	-767.44330	1225.17151	1403.71216	-572.31055	1431.27966	1426.84973	-521.13977	1259.22021	1490.32178	-771.07349	1330.39929	1234.93262	-649.16565	1462.04858	1167.07959	-711.09875	1270.18860	1166.85266	-755.64014	1137.87915	1151.38074	-794.76520	1013.15704	1165.85547	-783.66949	872.97498	1145.14282	-832.30713	895.07764	1142.90149	-840.69702	826.87854	1600.78186	-628.07190	1474.88110	1700.45325	-614.81561	1291.42896	1735.24463	-552.72589	1159.07202	1746.12402	-469.40674	1069.63904	1713.95300	-371.45828	981.13226	1756.18616	-402.11902	958.14923	1749.36157	-338.34573	924.41431	1316.37830	-525.46448	968.95996	1572.59497	-555.47028	944.58417	1370.90833	-743.61151	1005.43707	1482.46082	-760.67102	1002.16779	1236.20825	-518.11176	672.45557	1262.80249	-486.38055	474.30240	1259.97412	-489.61252	279.88641	1278.04712	-429.84186	66.49507	1331.24902	-460.73352	38.29664	1265.23340	-273.81216	39.50171	1630.67358	-705.38440	655.77869	1601.19238	-758.78137	452.44351	1602.99219	-872.46741	300.17932	1572.36560	-961.19739	126.08661	1514.03406	-1003.81750	80.49603	1608.01086	-835.32867	31.37248	1446.05249	-695.55823	1766.69519	-3357.42017	2845.73779	1034.20715																											 
29	0.280	1351.55237	-572.68750	1733.97510	1494.33875	-565.94330	1714.60718	1343.56165	-676.80939	1625.49219	1484.87000	-681.91754	1601.49231	1412.89368	-705.89441	1495.11890	1426.90454	-757.44263	1225.10645	1401.09912	-563.47650	1432.10083	1424.18018	-511.42203	1260.45801	1486.29321	-761.42651	1329.30750	1231.86047	-639.49817	1462.22253	1164.14185	-699.45404	1269.37561	1164.23889	-742.59058	1136.35925	1149.42383	-780.03162	1011.22723	1164.88892	-767.70953	871.38470	1143.37439	-816.54236	892.81244	1141.50977	-824.35754	824.40558	1598.45276	-620.10388	1475.20203	1697.79163	-607.91748	1291.12659	1732.45984	-547.04987	1158.23279	1744.12036	-464.44412	1068.29126	1712.66089	-367.03372	978.91742	1754.69727	-398.24219	956.25964	1748.11316	-334.73523	921.70972	1313.41284	-513.85211	970.12097	1569.49329	-543.64050	944.78040	1367.46191	-732.08331	1006.81598	1478.75757	-749.70050	1001.45660	1232.55920	-508.94653	673.91345	1260.76270	-475.33591	475.96048	1254.06873	-480.86337	281.67142	1278.63110	-429.57288	66.93164	1331.26941	-460.60062	39.01926	1264.74548	-273.30579	37.46604	1628.54163	-694.59778	656.46149	1600.95923	-747.93066	453.60611	1602.56921	-864.86041	303.76160	1572.75952	-957.21448	131.60504	1514.16028	-1000.35681	87.50288	1608.44812	-834.93121	31.56118	1443.56396	-687.24982	1767.11377	-3360.28223	2845.17993	1034.15417																											 
30	0.290	1349.01819	-564.27838	1735.13599	1491.80811	-557.56073	1715.55872	1340.80542	-668.14795	1626.39282	1482.02917	-673.31982	1602.19031	1410.08252	-697.09998	1495.92163	1424.26575	-747.46710	1225.37036	1398.56238	-554.66986	1433.20105	1421.51892	-501.71622	1261.95935	1483.10559	-752.64728	1329.53113	1228.85852	-629.76898	1462.76001	1161.32996	-686.88983	1268.44910	1161.65527	-729.08917	1135.07703	1147.07373	-765.39795	1009.72662	1164.51013	-751.29102	869.83466	1141.34705	-799.80298	890.57690	1139.72021	-807.30017	822.40894	1596.21606	-612.02954	1475.93286	1694.85193	-601.44336	1291.02454	1729.95874	-541.14386	1158.03809	1742.05298	-459.78918	1067.01855	1711.03699	-363.50165	976.32874	1753.14197	-394.99628	954.32227	1746.91785	-331.90002	919.07330	1310.28638	-502.63812	971.59741	1565.99817	-531.97253	945.32819	1364.25916	-720.90656	1008.61560	1475.63940	-738.28632	1001.49530	1229.83398	-499.40912	675.50409	1259.39063	-464.64355	477.27682	1249.85608	-472.95560	282.98080	1279.29077	-429.02640	67.73703	1331.37085	-460.11313	39.30677	1265.41345	-271.89471	36.36254	1626.18091	-683.19519	657.37762	1601.04431	-735.90002	454.86456	1602.39844	-856.33276	307.71786	1573.10156	-952.44434	137.76743	1514.27747	-996.03497	95.27885	1608.71008	-834.08508	31.69211	1441.00537	-678.98462	1767.85034	-3360.33423	2845.27637	1033.91956																											 
